<?xml version="1.0" encoding="UTF-8" standalone="no"?>
<!DOCTYPE svg PUBLIC "-//W3C//DTD SVG 1.1//EN" "http://www.w3.org/Graphics/SVG/1.1/DTD/svg11.dtd">
<!-- Created with Vectornator (http://vectornator.io/) -->
<svg height="100%" stroke-miterlimit="10" style="fill-rule:nonzero;clip-rule:evenodd;stroke-linecap:round;stroke-linejoin:round;" version="1.1" viewBox="0 0 176.56 54.24" width="100%" xml:space="preserve" xmlns="http://www.w3.org/2000/svg" xmlns:vectornator="http://vectornator.io" xmlns:xlink="http://www.w3.org/1999/xlink">
<defs/>
<g id="Untitled" vectornator:layerName="Untitled">
<g opacity="1" vectornator:layerName="path">
<clipPath clip-rule="nonzero" id="ClipPath">
<path d="M0 0L86.4 0L86.4 54.24L0 54.24L0 0Z"/>
</clipPath>
<g clip-path="url(#ClipPath)">
<path d="M55.728 42L55.8 54.12L64.8 54.24L64.8 30L55.68 29.88C55.68 29.88 55.728 42 55.728 42ZM4.056 39.84L4.056 44.16L13.776 44.04L13.872 35.52L4.056 35.52C4.056 35.52 4.056 39.84 4.056 39.84Z" fill="#000000" fill-rule="nonzero" opacity="1" stroke="none" vectornator:layerName="path"/>
<path d="M45.12 0.096C46 0.144 46.872 0.4 47.736 0.864C48.624 1.344 49.272 1.896 49.728 2.64C50.112 3.24 50.52 4.152 50.664 4.68C50.808 5.208 50.832 6.072 50.76 6.6C50.664 7.128 50.4 7.944 50.16 8.4C49.92 8.856 49.32 9.624 48.816 10.104C48.288 10.56 47.448 11.112 46.92 11.28C46.392 11.472 45.312 11.616 44.52 11.616C43.368 11.616 42.816 11.472 41.76 10.896C41.04 10.488 40.152 9.744 39.768 9.216C39.408 8.712 39 7.68 38.832 6.96C38.616 5.856 38.64 5.4 38.976 4.248C39.264 3.24 39.648 2.592 40.44 1.8C41.136 1.104 41.928 0.6 42.672 0.36C43.296 0.168 44.376 0.048 45.12 0.096ZM15.96 1.008C17.016 1.008 18.48 1.128 20.52 1.56L20.64 9.96L18.432 9.96C16.8 9.984 15.984 10.08 15.408 10.392C14.976 10.632 14.496 11.16 14.28 11.64C14.064 12.12 13.92 13.2 13.92 15.84L19.68 15.84L19.68 24L13.92 24L13.92 35.52L4.08 35.52L4.08 24L0 24L0 15.84L4.08 15.84L4.08 13.008C4.08 11.232 4.224 9.672 4.464 8.76C4.656 7.968 5.112 6.792 5.472 6.144C5.832 5.52 6.6 4.536 7.2 3.96C7.8 3.408 8.808 2.688 9.48 2.352C10.128 1.992 11.424 1.56 12.36 1.368C13.296 1.152 14.904 1.008 15.96 1.008ZM73.2 15.216C75.216 15.288 76.344 15.432 77.4 15.816C78.192 16.104 79.584 16.848 80.496 17.472C81.408 18.096 82.584 19.128 83.088 19.8C83.616 20.448 84.408 21.768 84.84 22.68C85.296 23.592 85.824 25.272 86.064 26.4C86.352 27.864 86.424 29.112 86.352 30.84C86.256 32.544 86.04 33.792 85.56 35.16C85.224 36.216 84.552 37.68 84.12 38.4C83.688 39.12 82.68 40.32 81.912 41.04C81.144 41.784 80.136 42.6 79.68 42.888C79.224 43.176 78.264 43.632 77.568 43.896C76.896 44.184 75.48 44.496 74.448 44.616C73.296 44.76 71.904 44.736 70.8 44.592C69.816 44.472 68.4 44.16 67.68 43.896C66.96 43.632 66 43.176 64.8 42.36L64.8 30L55.8 29.88L55.68 15.84L64.8 15.84L64.8 18.36L65.448 17.736C65.9379 17.3186 66.4422 16.9183 66.96 16.536C67.416 16.224 68.4 15.792 69.12 15.552C70.176 15.216 71.016 15.144 73.2 15.216ZM66.96 25.872C66.312 26.616 65.904 27.408 65.736 28.2C65.568 28.872 65.52 29.952 65.568 30.6C65.64 31.272 65.928 32.232 66.192 32.76C66.432 33.288 67.056 34.08 67.536 34.512C68.016 34.92 68.808 35.376 69.288 35.52C69.792 35.64 70.536 35.76 70.92 35.76C71.304 35.76 72.048 35.64 72.528 35.52C73.032 35.376 73.824 34.92 74.304 34.512C74.784 34.08 75.408 33.288 75.672 32.76C76.056 32.016 76.176 31.344 76.176 29.88C76.176 28.416 76.056 27.744 75.672 27C75.408 26.472 74.76 25.68 74.256 25.272C73.752 24.84 72.864 24.384 72.288 24.24C71.736 24.12 71.04 24 70.728 24.024C70.44 24.024 69.696 24.192 69.048 24.384C68.208 24.624 67.68 25.008 66.96 25.872Z" fill="#000000" fill-rule="evenodd" opacity="1" stroke="none" vectornator:layerName="path"/>
<path d="M23.808 27.792L23.88 44.04L33.72 44.04L33.84 11.52L23.76 11.52L23.808 27.792ZM39.816 30.024L39.816 44.184L49.656 44.16L49.656 15.84L39.816 15.84L39.816 30.024ZM23.808 6.552L23.88 11.4L33.72 11.4L33.816 1.68L23.76 1.68C23.76 1.68 23.808 6.552 23.808 6.552Z" fill="#000000" fill-rule="nonzero" opacity="1" stroke="none" vectornator:layerName="path"/>
</g>
</g>
<g opacity="1" vectornator:layerName="path">
<clipPath clip-rule="nonzero" id="ClipPath_2">
<path d="M96.4 5.76L176.56 5.76L176.56 48.48L96.4 48.48L96.4 5.76Z"/>
</clipPath>
<g clip-path="url(#ClipPath_2)">
<path d="M121.864 5.76L122.944 5.76C123.976 5.76 124 5.784 124.216 6.672C124.36 7.152 126.736 16.584 129.496 27.6C132.28 38.616 134.56 47.832 134.56 48.072C134.56 48.432 134.296 48.48 129.424 48.36L127.36 39.84L107.2 39.84L102.16 48.48L99.4 48.48C97.792 48.48 96.592 48.384 96.52 48.24C96.448 48.096 97.072 46.896 97.912 45.528C98.752 44.184 104.488 34.68 110.656 24.408L121.864 5.76ZM110.128 35.064C110.104 35.208 113.464 35.304 118.096 35.304C125.656 35.304 126.136 35.256 126.04 34.872C125.968 34.632 124.936 30.24 123.736 25.104C122.536 19.944 121.528 15.696 121.504 15.672C121.456 15.648 118.912 19.944 115.816 25.248C112.72 30.528 110.152 34.968 110.128 35.064ZM176.416 6.504L175.696 10.944L164.728 10.992C158.68 11.016 153.736 11.088 153.736 11.112C153.736 11.136 153.232 14.016 151.456 23.76L159.808 23.76C166.312 23.76 168.16 23.832 168.16 24.072C168.16 24.24 168.04 25.032 167.896 25.824C167.776 26.616 167.608 27.504 167.416 28.344L159.016 28.344C153.592 28.344 150.616 28.416 150.616 28.584C150.616 28.704 150.088 31.968 149.416 35.832C148.768 39.696 148.168 43.104 147.976 43.944L159.256 43.944C168.136 43.944 170.56 43.992 170.56 44.232C170.56 44.4 170.44 45.168 170.296 45.984C170.176 46.776 170.008 47.664 169.816 48.504L141.976 48.504L142.096 47.952C142.144 47.664 143.776 38.4 145.696 27.384C146.895 20.5584 148.103 13.7344 149.32 6.912C149.44 6.528 150.304 6.504 176.416 6.504Z" fill="#000000" fill-rule="evenodd" opacity="1" stroke="none" vectornator:layerName="path"/>
</g>
</g>
</g>
</svg>
